<svg width="150" height="32" viewBox="0 0 150 32" fill="none" xmlns="http://www.w3.org/2000/svg">
<path d="M26.6772 0H5.34395C2.40584 0 0 2.38456 0 5.34398V26.656C0 29.6154 2.40584 32 5.34395 32H26.6559C29.6153 32 31.9999 29.5941 31.9999 26.656V5.34398C32.0211 2.38456 29.6366 0 26.6772 0ZM26.2088 24.5057C26.2088 25.4424 25.4423 26.1876 24.5268 26.1876H7.5156C6.57881 26.1876 5.83364 25.4212 5.83364 24.5057V7.51564C5.83364 6.57884 6.6001 5.83367 7.5156 5.83367H24.5055C25.4423 5.83367 26.1875 6.60013 26.1875 7.51564V24.5057H26.2088ZM12.6041 20.354C12.0718 20.354 11.6247 19.9281 11.6247 19.3746V12.6041C11.6247 12.0719 12.0505 11.6247 12.6041 11.6247H19.3958C19.9281 11.6247 20.3752 12.0506 20.3752 12.6041V19.3959C20.3752 19.9281 19.9493 20.3752 19.3958 20.3752L12.6041 20.354Z" fill="#2C2F33"/>
<path d="M51.2784 13.9375H48.7898C48.7443 13.6155 48.6515 13.3295 48.5114 13.0795C48.3712 12.8258 48.1913 12.6098 47.9716 12.4318C47.7519 12.2538 47.4981 12.1174 47.2102 12.0227C46.9261 11.928 46.6174 11.8807 46.2841 11.8807C45.6818 11.8807 45.1572 12.0303 44.7102 12.3295C44.2633 12.625 43.9167 13.0568 43.6705 13.625C43.4242 14.1894 43.3011 14.875 43.3011 15.6818C43.3011 16.5114 43.4242 17.2083 43.6705 17.7727C43.9205 18.3371 44.2689 18.7633 44.7159 19.0511C45.1629 19.339 45.6799 19.483 46.267 19.483C46.5966 19.483 46.9015 19.4394 47.1818 19.3523C47.4659 19.2652 47.7178 19.1383 47.9375 18.9716C48.1572 18.8011 48.339 18.5947 48.483 18.3523C48.6307 18.1098 48.733 17.8333 48.7898 17.5227L51.2784 17.5341C51.214 18.0682 51.053 18.5833 50.7955 19.0795C50.5417 19.572 50.1989 20.0133 49.767 20.4034C49.339 20.7898 48.8277 21.0966 48.233 21.3239C47.642 21.5473 46.9735 21.6591 46.2273 21.6591C45.1894 21.6591 44.2614 21.4242 43.4432 20.9545C42.6288 20.4848 41.9848 19.8049 41.5114 18.9148C41.0417 18.0246 40.8068 16.947 40.8068 15.6818C40.8068 14.4129 41.0455 13.3333 41.5227 12.4432C42 11.553 42.6477 10.875 43.4659 10.4091C44.2841 9.93939 45.2045 9.70455 46.2273 9.70455C46.9015 9.70455 47.5265 9.79924 48.1023 9.98864C48.6818 10.178 49.1951 10.4545 49.642 10.8182C50.089 11.178 50.4527 11.6193 50.733 12.142C51.017 12.6648 51.1989 13.2633 51.2784 13.9375ZM56.9403 21.6705C56.0578 21.6705 55.2945 21.483 54.6506 21.108C54.0104 20.7292 53.5161 20.2027 53.1676 19.5284C52.8191 18.8504 52.6449 18.0644 52.6449 17.1705C52.6449 16.2689 52.8191 15.4811 53.1676 14.8068C53.5161 14.1288 54.0104 13.6023 54.6506 13.2273C55.2945 12.8485 56.0578 12.6591 56.9403 12.6591C57.8229 12.6591 58.5843 12.8485 59.2244 13.2273C59.8684 13.6023 60.3646 14.1288 60.7131 14.8068C61.0616 15.4811 61.2358 16.2689 61.2358 17.1705C61.2358 18.0644 61.0616 18.8504 60.7131 19.5284C60.3646 20.2027 59.8684 20.7292 59.2244 21.108C58.5843 21.483 57.8229 21.6705 56.9403 21.6705ZM56.9517 19.7955C57.3532 19.7955 57.6884 19.6818 57.9574 19.4545C58.2263 19.2235 58.429 18.9091 58.5653 18.5114C58.7055 18.1136 58.7756 17.661 58.7756 17.1534C58.7756 16.6458 58.7055 16.1932 58.5653 15.7955C58.429 15.3977 58.2263 15.0833 57.9574 14.8523C57.6884 14.6212 57.3532 14.5057 56.9517 14.5057C56.5464 14.5057 56.2055 14.6212 55.929 14.8523C55.6563 15.0833 55.4498 15.3977 55.3097 15.7955C55.1733 16.1932 55.1051 16.6458 55.1051 17.1534C55.1051 17.661 55.1733 18.1136 55.3097 18.5114C55.4498 18.9091 55.6563 19.2235 55.929 19.4545C56.2055 19.6818 56.5464 19.7955 56.9517 19.7955ZM65.2301 16.4545V21.5H62.8097V12.7727H65.1165V14.3125H65.2188C65.4119 13.8049 65.7358 13.4034 66.1903 13.108C66.6449 12.8087 67.196 12.6591 67.8438 12.6591C68.4498 12.6591 68.9782 12.7917 69.429 13.0568C69.8797 13.322 70.2301 13.7008 70.4801 14.1932C70.7301 14.6818 70.8551 15.2652 70.8551 15.9432V21.5H68.4347V16.375C68.4384 15.8409 68.3021 15.4242 68.0256 15.125C67.7491 14.822 67.3684 14.6705 66.8835 14.6705C66.5578 14.6705 66.2699 14.7405 66.0199 14.8807C65.7737 15.0208 65.5805 15.2254 65.4403 15.4943C65.304 15.7595 65.2339 16.0795 65.2301 16.4545ZM80.5866 12.7727L77.5355 21.5H74.8082L71.7571 12.7727H74.3139L76.1264 19.017H76.2173L78.0241 12.7727H80.5866ZM85.5213 21.6705C84.6236 21.6705 83.8509 21.4886 83.2031 21.125C82.5592 20.7576 82.063 20.2386 81.7145 19.5682C81.366 18.8939 81.1918 18.0966 81.1918 17.1761C81.1918 16.2784 81.366 15.4905 81.7145 14.8125C82.063 14.1345 82.5535 13.6061 83.1861 13.2273C83.8224 12.8485 84.5687 12.6591 85.4247 12.6591C86.0005 12.6591 86.5365 12.7519 87.0327 12.9375C87.5327 13.1193 87.9683 13.3939 88.3395 13.7614C88.7145 14.1288 89.0062 14.5909 89.2145 15.1477C89.4228 15.7008 89.527 16.3485 89.527 17.0909V17.7557H82.1577V16.2557H87.2486C87.2486 15.9072 87.1728 15.5985 87.0213 15.3295C86.8698 15.0606 86.6596 14.8504 86.3906 14.6989C86.1255 14.5436 85.8168 14.4659 85.4645 14.4659C85.0971 14.4659 84.7713 14.5511 84.4872 14.7216C84.2069 14.8883 83.9872 15.1136 83.8281 15.3977C83.669 15.678 83.5876 15.9905 83.5838 16.3352V17.7614C83.5838 18.1932 83.6634 18.5663 83.8224 18.8807C83.9853 19.1951 84.2145 19.4375 84.5099 19.608C84.8054 19.7784 85.1558 19.8636 85.5611 19.8636C85.83 19.8636 86.0762 19.8258 86.2997 19.75C86.5232 19.6742 86.7145 19.5606 86.8736 19.4091C87.0327 19.2576 87.1539 19.072 87.2372 18.8523L89.4759 19C89.3622 19.5379 89.1293 20.0076 88.777 20.4091C88.4285 20.8068 87.9777 21.1174 87.4247 21.3409C86.8755 21.5606 86.241 21.6705 85.5213 21.6705ZM92.3665 24.7727C92.0597 24.7727 91.7718 24.7481 91.5028 24.6989C91.2377 24.6534 91.018 24.5947 90.8438 24.5227L91.3892 22.7159C91.6733 22.803 91.929 22.8504 92.1562 22.858C92.3873 22.8655 92.5862 22.8125 92.7528 22.6989C92.9233 22.5852 93.0616 22.392 93.1676 22.1193L93.3097 21.75L90.179 12.7727H92.7244L94.5312 19.1818H94.6222L96.446 12.7727H99.0085L95.6165 22.4432C95.4536 22.9129 95.232 23.322 94.9517 23.6705C94.6752 24.0227 94.3248 24.2936 93.9006 24.483C93.4763 24.6761 92.965 24.7727 92.3665 24.7727ZM103.909 21.6705C103.027 21.6705 102.263 21.483 101.619 21.108C100.979 20.7292 100.485 20.2027 100.136 19.5284C99.7879 18.8504 99.6136 18.0644 99.6136 17.1705C99.6136 16.2689 99.7879 15.4811 100.136 14.8068C100.485 14.1288 100.979 13.6023 101.619 13.2273C102.263 12.8485 103.027 12.6591 103.909 12.6591C104.792 12.6591 105.553 12.8485 106.193 13.2273C106.837 13.6023 107.333 14.1288 107.682 14.8068C108.03 15.4811 108.205 16.2689 108.205 17.1705C108.205 18.0644 108.03 18.8504 107.682 19.5284C107.333 20.2027 106.837 20.7292 106.193 21.108C105.553 21.483 104.792 21.6705 103.909 21.6705ZM103.92 19.7955C104.322 19.7955 104.657 19.6818 104.926 19.4545C105.195 19.2235 105.398 18.9091 105.534 18.5114C105.674 18.1136 105.744 17.661 105.744 17.1534C105.744 16.6458 105.674 16.1932 105.534 15.7955C105.398 15.3977 105.195 15.0833 104.926 14.8523C104.657 14.6212 104.322 14.5057 103.92 14.5057C103.515 14.5057 103.174 14.6212 102.898 14.8523C102.625 15.0833 102.419 15.3977 102.278 15.7955C102.142 16.1932 102.074 16.6458 102.074 17.1534C102.074 17.661 102.142 18.1136 102.278 18.5114C102.419 18.9091 102.625 19.2235 102.898 19.4545C103.174 19.6818 103.515 19.7955 103.92 19.7955ZM109.778 21.5V12.7727H112.125V14.2955H112.216C112.375 13.7538 112.642 13.3447 113.017 13.0682C113.392 12.7879 113.824 12.6477 114.312 12.6477C114.434 12.6477 114.564 12.6553 114.705 12.6705C114.845 12.6856 114.968 12.7064 115.074 12.733V14.8807C114.96 14.8466 114.803 14.8163 114.602 14.7898C114.402 14.7633 114.218 14.75 114.051 14.75C113.695 14.75 113.377 14.8277 113.097 14.983C112.82 15.1345 112.6 15.3466 112.438 15.6193C112.278 15.892 112.199 16.2064 112.199 16.5625V21.5H109.778ZM120.074 21.5V9.86364H124.733C125.589 9.86364 126.303 9.99053 126.875 10.2443C127.447 10.4981 127.877 10.8504 128.165 11.3011C128.453 11.7481 128.597 12.2633 128.597 12.8466C128.597 13.3011 128.506 13.7008 128.324 14.0455C128.142 14.3864 127.892 14.6667 127.574 14.8864C127.259 15.1023 126.9 15.2557 126.494 15.3466V15.4602C126.938 15.4792 127.352 15.6042 127.739 15.8352C128.129 16.0663 128.445 16.3902 128.688 16.8068C128.93 17.2197 129.051 17.7121 129.051 18.2841C129.051 18.9015 128.898 19.4527 128.591 19.9375C128.288 20.4186 127.839 20.7992 127.244 21.0795C126.65 21.3598 125.917 21.5 125.045 21.5H120.074ZM122.534 19.4886H124.54C125.225 19.4886 125.725 19.358 126.04 19.0966C126.354 18.8314 126.511 18.4792 126.511 18.0398C126.511 17.7178 126.434 17.4337 126.278 17.1875C126.123 16.9413 125.902 16.7481 125.614 16.608C125.33 16.4678 124.991 16.3977 124.597 16.3977H122.534V19.4886ZM122.534 14.733H124.358C124.695 14.733 124.994 14.6742 125.256 14.5568C125.521 14.4356 125.729 14.2652 125.881 14.0455C126.036 13.8258 126.114 13.5625 126.114 13.2557C126.114 12.8352 125.964 12.4962 125.665 12.2386C125.369 11.9811 124.949 11.8523 124.403 11.8523H122.534V14.733ZM134.584 21.6705C133.686 21.6705 132.913 21.4886 132.266 21.125C131.622 20.7576 131.125 20.2386 130.777 19.5682C130.429 18.8939 130.254 18.0966 130.254 17.1761C130.254 16.2784 130.429 15.4905 130.777 14.8125C131.125 14.1345 131.616 13.6061 132.249 13.2273C132.885 12.8485 133.631 12.6591 134.487 12.6591C135.063 12.6591 135.599 12.7519 136.095 12.9375C136.595 13.1193 137.031 13.3939 137.402 13.7614C137.777 14.1288 138.069 14.5909 138.277 15.1477C138.485 15.7008 138.589 16.3485 138.589 17.0909V17.7557H131.22V16.2557H136.311C136.311 15.9072 136.235 15.5985 136.084 15.3295C135.932 15.0606 135.722 14.8504 135.453 14.6989C135.188 14.5436 134.879 14.4659 134.527 14.4659C134.16 14.4659 133.834 14.5511 133.55 14.7216C133.269 14.8883 133.05 15.1136 132.891 15.3977C132.732 15.678 132.65 15.9905 132.646 16.3352V17.7614C132.646 18.1932 132.726 18.5663 132.885 18.8807C133.048 19.1951 133.277 19.4375 133.572 19.608C133.868 19.7784 134.218 19.8636 134.624 19.8636C134.893 19.8636 135.139 19.8258 135.362 19.75C135.586 19.6742 135.777 19.5606 135.936 19.4091C136.095 19.2576 136.216 19.072 136.3 18.8523L138.538 19C138.425 19.5379 138.192 20.0076 137.839 20.4091C137.491 20.8068 137.04 21.1174 136.487 21.3409C135.938 21.5606 135.304 21.6705 134.584 21.6705ZM142.589 9.86364V21.5H140.169V9.86364H142.589ZM149.17 12.7727V14.5909H143.915V12.7727H149.17ZM145.108 10.6818H147.528V18.8182C147.528 19.0417 147.563 19.2159 147.631 19.3409C147.699 19.4621 147.794 19.5473 147.915 19.5966C148.04 19.6458 148.184 19.6705 148.347 19.6705C148.46 19.6705 148.574 19.661 148.688 19.642C148.801 19.6193 148.888 19.6023 148.949 19.5909L149.33 21.392C149.208 21.4299 149.038 21.4735 148.818 21.5227C148.598 21.5758 148.331 21.608 148.017 21.6193C147.434 21.642 146.922 21.5644 146.483 21.3864C146.047 21.2083 145.708 20.9318 145.466 20.5568C145.223 20.1818 145.104 19.7083 145.108 19.1364V10.6818Z" fill="#2C2F33"/>
</svg>
