<svg width="32" height="32" viewBox="0 0 32 32" fill="none" xmlns="http://www.w3.org/2000/svg">
<path d="M26.6772 0H5.34395C2.40584 0 0 2.38456 0 5.34398V26.656C0 29.6154 2.40584 32 5.34395 32H26.6559C29.6153 32 31.9999 29.5941 31.9999 26.656V5.34398C32.0211 2.38456 29.6366 0 26.6772 0ZM26.2088 24.5057C26.2088 25.4424 25.4423 26.1876 24.5268 26.1876H7.5156C6.57881 26.1876 5.83364 25.4212 5.83364 24.5057V7.51564C5.83364 6.57884 6.6001 5.83367 7.5156 5.83367H24.5055C25.4423 5.83367 26.1875 6.60013 26.1875 7.51564V24.5057H26.2088ZM12.6041 20.354C12.0718 20.354 11.6247 19.9281 11.6247 19.3746V12.6041C11.6247 12.0719 12.0505 11.6247 12.6041 11.6247H19.3958C19.9281 11.6247 20.3752 12.0506 20.3752 12.6041V19.3959C20.3752 19.9281 19.9493 20.3752 19.3958 20.3752L12.6041 20.354Z" fill="#2C2F33"/>
</svg>
